<svg width="122" height="223" viewBox="0 0 122 223" fill="none" xmlns="http://www.w3.org/2000/svg">
<g clip-path="url(#clip0)">
<path d="M21.9915 0.703857L25.3753 10.0337L17.1112 13.788L13.7385 4.44697L21.9915 0.703857Z" fill="#1E9A5E"/>
<path d="M21.9919 0.703806L47.7113 -0.00012207L51.0839 9.32972L25.3758 10.0336L21.9919 0.703806Z" fill="#25BF75"/>
<path d="M25.3744 10.0336L51.0826 9.32971L42.8296 13.0728L17.1103 13.7879L25.3744 10.0336Z" fill="#156A41"/>
<path d="M25.3741 10.0336L28.7468 19.3746L20.4938 23.1289L17.11 13.7879L25.3741 10.0336Z" fill="#1DA165"/>
<path d="M25.3751 10.0336L51.0832 9.32971L54.467 18.6707L28.7477 19.3747L25.3751 10.0336Z" fill="#24C87E"/>
<path d="M28.7464 19.3746L54.4657 18.6707L46.2127 22.4138L20.4934 23.1289L28.7464 19.3746Z" fill="#146F46"/>
<path d="M28.7464 19.3746L32.1302 28.7156L23.8661 32.4588L20.4934 23.1289L28.7464 19.3746Z" fill="#1E9A5E"/>
<path d="M28.7467 19.3746L54.466 18.6707L57.8498 28.0006L32.1305 28.7157L28.7467 19.3746Z" fill="#25BF75"/>
<path d="M32.1325 28.7157L57.8519 28.0005L49.5877 31.7548L23.8684 32.4588L32.1325 28.7157Z" fill="#156A41"/>
<path d="M37.022 15.6316L40.3947 24.9726L32.1305 28.7157L28.7467 19.3747L37.022 15.6316Z" fill="#37AE72"/>
<path d="M37.0219 15.6315L62.7301 14.9276L66.1139 24.2686L40.3946 24.9726L37.0219 15.6315Z" fill="#44D88E"/>
<path d="M40.3942 24.9725L66.1135 24.2686L57.8494 28.0117L32.1301 28.7157L40.3942 24.9725Z" fill="#26784F"/>
<path d="M40.3949 24.9725L66.1142 24.2686L69.4869 33.5985L43.7787 34.3024L40.3949 24.9725Z" fill="#24C87E"/>
<path d="M43.7795 34.3024L69.4877 33.5984L61.2235 37.3416L35.5154 38.0567L43.7795 34.3024Z" fill="#146F46"/>
<path d="M40.3942 24.9725L43.778 34.3024L35.5139 38.0567L32.1301 28.7156L40.3942 24.9725Z" fill="#1DA165"/>
<path d="M38.8857 47.3866L64.605 46.6715L56.352 50.437L30.6327 51.1409L38.8857 47.3866Z" fill="#26784F"/>
<path d="M43.7765 34.3024L47.1491 43.6323L38.885 47.3977L35.5123 38.0567L43.7765 34.3024Z" fill="#1DA165"/>
<path d="M43.7761 34.3024L69.4843 33.5985L72.8681 42.9284L47.1488 43.6323L43.7761 34.3024Z" fill="#24C87E"/>
<path d="M47.1515 43.6323L72.8708 42.9283L64.6067 46.6826L38.8873 47.3977L47.1515 43.6323Z" fill="#146F46"/>
<path d="M34.0074 60.4707L37.3912 69.8117L29.1271 73.5548L25.7432 64.2138L34.0074 60.4707Z" fill="#1E9A5E"/>
<path d="M34.008 60.4707L59.7273 59.7668L63.1112 69.1078L37.3918 69.8117L34.008 60.4707Z" fill="#25BF75"/>
<path d="M37.3907 69.8117L63.11 69.1078L54.8459 72.8509L29.1266 73.5548L37.3907 69.8117Z" fill="#156A41"/>
<path d="M42.2699 56.7276L67.9781 56.0125L59.7251 59.7667L34.0058 60.4707L42.2699 56.7276Z" fill="#156A41"/>
<path d="M38.8857 47.3977L42.2695 56.7275L34.0054 60.4706L30.6327 51.1408L38.8857 47.3977Z" fill="#1E9A5E"/>
<path d="M38.8873 47.3977L64.6066 46.6826L67.9793 56.0124L42.2712 56.7275L38.8873 47.3977Z" fill="#25BF75"/>
<path d="M42.2695 56.7276L67.9777 56.0125L71.3615 65.3535L45.6534 66.0686L42.2695 56.7276Z" fill="#24C87E"/>
<path d="M42.2699 56.7275L45.6538 66.0686L37.3896 69.8117L34.0058 60.4707L42.2699 56.7275Z" fill="#1DA165"/>
<path d="M45.6542 66.0686L71.3624 65.3535L63.1094 69.1078L37.3901 69.8117L45.6542 66.0686Z" fill="#146F46"/>
<path d="M47.1626 43.6434L50.5353 52.9733L42.2712 56.7276L38.8873 47.3977L47.1626 43.6434Z" fill="#1DA165"/>
<path d="M50.5337 52.9732L76.253 52.2693L67.9777 56.0124L42.2695 56.7275L50.5337 52.9732Z" fill="#146F46"/>
<path d="M47.1614 43.6434L72.8695 42.9395L76.2534 52.2694L50.534 52.9733L47.1614 43.6434Z" fill="#24C87E"/>
<path d="M37.3894 69.8116L40.7732 79.1415L32.4979 82.8958L29.1252 73.5548L37.3894 69.8116Z" fill="#1DA165"/>
<path d="M37.3901 69.8117L63.1095 69.1077L66.4821 78.4376L40.774 79.1415L37.3901 69.8117Z" fill="#24C87E"/>
<path d="M40.7736 79.1414L66.4818 78.4375L58.2176 82.1806L32.4983 82.8957L40.7736 79.1414Z" fill="#146F46"/>
<path d="M35.8843 92.2257L61.6036 91.5218L53.3395 95.2761L27.6313 95.98L35.8843 92.2257Z" fill="#26784F"/>
<path d="M40.7748 79.1416L44.1475 88.4826L35.8833 92.2369L32.4995 82.8959L40.7748 79.1416Z" fill="#1DA165"/>
<path d="M40.7746 79.1416L66.4828 78.4377L69.8666 87.7787L44.1473 88.4826L40.7746 79.1416Z" fill="#24C87E"/>
<path d="M44.1479 88.4826L69.8672 87.7787L61.6031 91.5218L35.8838 92.2369L44.1479 88.4826Z" fill="#146F46"/>
<path d="M55.4146 39.8892L81.1228 39.1852L72.8698 42.9395L47.1616 43.6435L55.4146 39.8892Z" fill="#26784F"/>
<path d="M35.8843 92.2369L39.2681 101.567L31.004 105.31L27.6313 95.98L35.8843 92.2369Z" fill="#1DA165"/>
<path d="M35.8838 92.2368L61.6031 91.5217L64.9758 100.863L39.2676 101.567L35.8838 92.2368Z" fill="#24C87E"/>
<path d="M39.2663 101.567L64.9744 100.863L56.7215 104.606L31.0021 105.31L39.2663 101.567Z" fill="#146F46"/>
<path d="M44.1469 88.4825L47.5307 97.8124L39.2666 101.567L35.8828 92.2368L44.1469 88.4825Z" fill="#1DA165"/>
<path d="M44.1475 88.4826L69.8669 87.7786L73.2395 97.1085L47.5314 97.8124L44.1475 88.4826Z" fill="#24C87E"/>
<path d="M47.5301 97.8124L73.2383 97.1085L64.9742 100.863L39.266 101.567L47.5301 97.8124Z" fill="#146F46"/>
<path d="M39.2654 101.567L42.638 110.897L34.3851 114.64L31.0012 105.31L39.2654 101.567Z" fill="#1DA165"/>
<path d="M39.266 101.567L64.9741 100.863L68.358 110.193L42.6387 110.897L39.266 101.567Z" fill="#24C87E"/>
<path d="M42.6374 110.897L68.3568 110.193L60.0926 113.936L34.3845 114.64L42.6374 110.897Z" fill="#146F46"/>
<path d="M42.6385 110.897L46.0223 120.238L37.7582 123.981L34.3855 114.64L42.6385 110.897Z" fill="#1DA165"/>
<path d="M42.6379 110.896L68.3572 110.193L71.7299 119.534L46.0217 120.238L42.6379 110.896Z" fill="#24C87E"/>
<path d="M46.0205 120.238L71.7287 119.534L63.4757 123.277L37.7563 123.981L46.0205 120.238Z" fill="#146F46"/>
<path d="M47.5312 97.8124L50.9038 107.142L42.6397 110.897L39.267 101.567L47.5312 97.8124Z" fill="#1DA165"/>
<path d="M47.5318 97.8124L73.2399 97.1085L76.6238 106.438L50.9045 107.142L47.5318 97.8124Z" fill="#24C87E"/>
<path d="M50.902 107.142L76.6213 106.438L68.3572 110.193L42.6379 110.897L50.902 107.142Z" fill="#146F46"/>
<path d="M45.6544 66.0686L49.027 75.3985L40.7741 79.1416L37.3903 69.8117L45.6544 66.0686Z" fill="#1DA165"/>
<path d="M45.6551 66.0686L71.3633 65.3535L74.7471 74.6945L49.0278 75.3984L45.6551 66.0686Z" fill="#24C87E"/>
<path d="M49.0265 75.3985L74.7459 74.6946L66.4817 78.4377L40.7736 79.1416L49.0265 75.3985Z" fill="#146F46"/>
<path d="M52.4127 84.7395L78.1208 84.0356L69.8679 87.7787L44.1486 88.4826L52.4127 84.7395Z" fill="#146F46"/>
<path d="M49.027 75.3985L74.7463 74.6946L78.119 84.0356L52.4108 84.7395L49.027 75.3985Z" fill="#24C87E"/>
<path d="M49.0265 75.3985L52.4104 84.7395L44.1462 88.4826L40.7736 79.1416L49.0265 75.3985Z" fill="#1DA165"/>
<path d="M50.5339 52.9734L53.9177 62.3144L45.6536 66.0687L42.2698 56.7277L50.5339 52.9734Z" fill="#37AE72"/>
<path d="M50.5345 52.9733L76.2539 52.2694L79.6265 61.6104L53.9184 62.3143L50.5345 52.9733Z" fill="#44D88E"/>
<path d="M53.9192 62.3143L79.6274 61.6104L71.3632 65.3535L45.6551 66.0686L53.9192 62.3143Z" fill="#26784F"/>
<path d="M52.4127 84.7395L55.7854 94.0694L47.5324 97.8125L44.1486 88.4826L52.4127 84.7395Z" fill="#1DA165"/>
<path d="M55.7837 94.0693L81.503 93.3654L73.2389 97.1085L47.5308 97.8124L55.7837 94.0693Z" fill="#146F46"/>
<path d="M52.4102 84.7395L78.1184 84.0356L81.5022 93.3654L55.7829 94.0693L52.4102 84.7395Z" fill="#24C87E"/>
<path d="M57.2911 71.6442L83.0104 70.9402L74.7463 74.6945L49.027 75.3985L57.2911 71.6442Z" fill="#146F46"/>
<path d="M53.9188 62.3143L79.627 61.6104L83.0108 70.9403L57.2915 71.6442L53.9188 62.3143Z" fill="#24C87E"/>
<path d="M53.9192 62.3143L57.2919 71.6442L49.0277 75.3985L45.6551 66.0686L53.9192 62.3143Z" fill="#1DA165"/>
<path d="M55.4145 39.9003L58.7872 49.2302L50.5342 52.9733L47.1616 43.6434L55.4145 39.9003Z" fill="#1DA165"/>
<path d="M55.4161 39.9004L81.1354 39.1965L84.508 48.5263L58.7887 49.2302L55.4161 39.9004Z" fill="#24C87E"/>
<path d="M58.7875 49.2302L84.5068 48.5262L76.2539 52.2694L50.5345 52.9733L58.7875 49.2302Z" fill="#146F46"/>
<path d="M57.2911 71.6442L60.6749 80.9852L52.4108 84.7394L49.027 75.3984L57.2911 71.6442Z" fill="#37AE72"/>
<path d="M57.2917 71.6442L83.0111 70.9402L86.3949 80.2813L60.6756 80.9852L57.2917 71.6442Z" fill="#44D88E"/>
<path d="M60.6744 80.9852L86.3937 80.2813L78.1184 84.0356L52.4102 84.7395L60.6744 80.9852Z" fill="#26784F"/>
<path d="M58.788 49.2302L84.5073 48.5262L87.8799 57.8561L62.1718 58.56L58.788 49.2302Z" fill="#24C87E"/>
<path d="M62.1718 58.5601L87.88 57.8561L79.627 61.6104L53.9188 62.3143L62.1718 58.5601Z" fill="#146F46"/>
<path d="M58.7875 49.2302L62.1713 58.56L53.9184 62.3143L50.5345 52.9733L58.7875 49.2302Z" fill="#1DA165"/>
<path d="M60.6744 80.9852L64.047 90.3151L55.7829 94.0693L52.4102 84.7395L60.6744 80.9852Z" fill="#1DA165"/>
<path d="M64.0483 90.315L89.7677 89.6111L81.5035 93.3654L55.7842 94.0693L64.0483 90.315Z" fill="#146F46"/>
<path d="M60.674 80.9852L86.3933 80.2813L89.7659 89.6111L64.0466 90.3151L60.674 80.9852Z" fill="#24C87E"/>
<path d="M62.1718 58.5713L65.5556 67.9011L57.2915 71.6443L53.9188 62.3144L62.1718 58.5713Z" fill="#37AE72"/>
<path d="M62.1702 58.5712L87.8895 57.8673L91.2622 67.1971L65.554 67.9011L62.1702 58.5712Z" fill="#44D88E"/>
<path d="M65.5559 67.9011L91.264 67.1971L83.0111 70.9403L57.2917 71.6442L65.5559 67.9011Z" fill="#26784F"/>
<path d="M65.5559 67.9011L68.9285 77.2421L60.6756 80.9852L57.2917 71.6442L65.5559 67.9011Z" fill="#37AE72"/>
<path d="M65.5555 67.9011L91.2636 67.1971L94.6475 76.5382L68.9281 77.2421L65.5555 67.9011Z" fill="#44D88E"/>
<path d="M68.9269 77.2421L94.6463 76.5381L86.3933 80.2813L60.674 80.9852L68.9269 77.2421Z" fill="#26784F"/>
<path d="M68.9269 77.2421L72.3108 86.5719L64.0466 90.315L60.674 80.9852L68.9269 77.2421Z" fill="#37AE72"/>
<path d="M68.9285 77.2421L94.6478 76.5381L98.0204 85.868L72.3123 86.5719L68.9285 77.2421Z" fill="#44D88E"/>
<path d="M72.3111 86.572L98.0192 85.868L89.7663 89.6112L64.0469 90.3151L72.3111 86.572Z" fill="#26784F"/>
<path d="M70.4353 54.8169L96.1547 54.1018L87.8905 57.8673L62.1712 58.5712L70.4353 54.8169Z" fill="#26784F"/>
<path d="M8.46475 202.485L34.1841 201.781L29.0916 204.083L3.38342 204.798L8.46475 202.485Z" fill="#156A41"/>
<path d="M8.2534 191.703L11.6372 201.044L8.46558 202.486L3.38426 204.798L0.000427246 195.457L8.2534 191.703Z" fill="#1E9A5E"/>
<path d="M8.25378 191.703L33.9731 190.999L37.3569 200.34L11.6376 201.044L8.25378 191.703Z" fill="#25BF75"/>
<path d="M11.6378 201.044L37.3572 200.34L34.1855 201.781L8.46619 202.485L11.6378 201.044Z" fill="#156A41"/>
<path d="M16.5298 187.96L19.9024 197.29L11.6383 201.044L8.25446 191.703L16.5298 187.96Z" fill="#1E9A5E"/>
<path d="M16.5297 187.96L42.2378 187.256L45.6217 196.586L19.9023 197.29L16.5297 187.96Z" fill="#25BF75"/>
<path d="M19.902 197.29L45.6213 196.586L37.3571 200.34L11.6378 201.044L19.902 197.29Z" fill="#156A41"/>
<path d="M47.8993 151.993L51.2832 161.334L43.019 165.077L39.6352 155.736L47.8993 151.993Z" fill="#1DA165"/>
<path d="M47.9 151.993L73.6193 151.278L76.992 160.619L51.2838 161.334L47.9 151.993Z" fill="#24C87E"/>
<path d="M51.2815 161.334L76.9897 160.619L68.7256 164.373L43.0174 165.077L51.2815 161.334Z" fill="#146F46"/>
<path d="M46.0226 120.238L49.3952 129.567L41.1423 133.311L37.7584 123.981L46.0226 120.238Z" fill="#1DA165"/>
<path d="M46.0232 120.237L71.7313 119.534L75.1152 128.863L49.3959 129.567L46.0232 120.237Z" fill="#24C87E"/>
<path d="M49.3946 129.567L75.114 128.863L66.8498 132.607L41.1417 133.31L49.3946 129.567Z" fill="#146F46"/>
<path d="M50.9021 107.142L54.286 116.483L46.0218 120.238L42.638 110.897L50.9021 107.142Z" fill="#1DA165"/>
<path d="M54.2854 116.483L80.0047 115.779L71.7294 119.534L46.0212 120.238L54.2854 116.483Z" fill="#146F46"/>
<path d="M50.9038 107.142L76.6231 106.438L80.0069 115.779L54.2876 116.483L50.9038 107.142Z" fill="#24C87E"/>
<path d="M57.6593 125.824L83.3787 125.109L75.1145 128.863L49.3952 129.567L57.6593 125.824Z" fill="#146F46"/>
<path d="M54.2854 116.483L57.658 125.824L49.3939 129.567L46.0212 120.238L54.2854 116.483Z" fill="#1DA165"/>
<path d="M54.286 116.483L80.0053 115.779L83.378 125.109L57.6587 125.824L54.286 116.483Z" fill="#24C87E"/>
<path d="M59.1679 103.399L84.8761 102.695L76.6231 106.438L50.9038 107.142L59.1679 103.399Z" fill="#146F46"/>
<path d="M55.7822 94.0693L81.5015 93.3654L84.8742 102.695L59.1661 103.399L55.7822 94.0693Z" fill="#24C87E"/>
<path d="M55.7838 94.0693L59.1677 103.399L50.9035 107.142L47.5309 97.8125L55.7838 94.0693Z" fill="#1DA165"/>
<path d="M59.1679 103.399L62.5406 112.74L54.2876 116.483L50.9038 107.142L59.1679 103.399Z" fill="#1DA165"/>
<path d="M59.1675 103.399L84.8757 102.695L88.2595 112.036L62.5402 112.74L59.1675 103.399Z" fill="#24C87E"/>
<path d="M62.539 112.74L88.2583 112.036L80.0053 115.779L54.286 116.483L62.539 112.74Z" fill="#146F46"/>
<path d="M49.3957 129.567L52.7795 138.908L44.5265 142.651L41.1427 133.31L49.3957 129.567Z" fill="#1DA165"/>
<path d="M49.3951 129.567L75.1145 128.863L78.4983 138.204L52.779 138.908L49.3951 129.567Z" fill="#24C87E"/>
<path d="M52.7779 138.908L78.4973 138.204L70.2331 141.948L44.525 142.651L52.7779 138.908Z" fill="#146F46"/>
<path d="M70.4354 54.8169L73.8192 64.1579L65.5551 67.901L62.1713 58.5712L70.4354 54.8169Z" fill="#1DA165"/>
<path d="M70.436 54.8169L96.1553 54.113L99.528 63.4428L73.8199 64.1579L70.436 54.8169Z" fill="#24C87E"/>
<path d="M73.8176 64.1579L99.5258 63.4428L91.2616 67.1971L65.5535 67.901L73.8176 64.1579Z" fill="#146F46"/>
<path d="M73.8176 64.1579L77.1902 73.4989L68.9261 77.242L65.5535 67.901L73.8176 64.1579Z" fill="#1DA165"/>
<path d="M73.8193 64.1579L99.5274 63.4428L102.911 72.7838L77.1919 73.4989L73.8193 64.1579Z" fill="#24C87E"/>
<path d="M77.1926 73.4989L102.912 72.7838L94.6478 76.5381L68.9285 77.242L77.1926 73.4989Z" fill="#146F46"/>
<path d="M77.1926 73.499L80.5765 82.8288L72.3123 86.5719L68.9285 77.2421L77.1926 73.499Z" fill="#1DA165"/>
<path d="M77.1932 73.499L102.913 72.7839L106.296 82.1137L80.5771 82.8288L77.1932 73.499Z" fill="#24C87E"/>
<path d="M80.5748 82.8287L106.294 82.1136L98.0188 85.8679L72.3107 86.5719L80.5748 82.8287Z" fill="#146F46"/>
<path d="M16.731 198.731L42.4503 198.027L45.823 207.357L20.1148 208.072L16.731 198.731Z" fill="#24C87E"/>
<path d="M20.1126 208.072L45.8207 207.357L37.5566 211.111L11.8484 211.815L20.1126 208.072Z" fill="#146F46"/>
<path d="M16.7295 198.731L20.1134 208.072L11.8492 211.815L8.46539 202.485L11.637 201.044L16.7295 198.731Z" fill="#1DA165"/>
<path d="M24.9945 194.988L50.7026 194.284L45.6213 196.586L19.902 197.301L24.9945 194.988Z" fill="#26784F"/>
<path d="M24.9952 194.988L28.3678 204.318L20.1148 208.072L16.731 198.731L24.9952 194.988Z" fill="#1DA165"/>
<path d="M24.9948 194.988L50.7029 194.284L54.0867 203.614L28.3674 204.318L24.9948 194.988Z" fill="#24C87E"/>
<path d="M28.3661 204.318L54.0854 203.614L45.8212 207.357L20.1131 208.072L28.3661 204.318Z" fill="#146F46"/>
<path d="M28.3677 204.318L54.0871 203.614L57.4709 212.955L31.7516 213.659L28.3677 204.318Z" fill="#24C87E"/>
<path d="M28.3661 204.318L31.7499 213.659L23.4969 217.413L20.1131 208.072L28.3661 204.318Z" fill="#1DA165"/>
<path d="M31.7516 213.659L57.4709 212.955L49.2068 216.698L23.4987 217.413L31.7516 213.659Z" fill="#146F46"/>
<path d="M33.2589 191.245L58.9782 190.53L50.7029 194.284L24.9948 194.988L33.2589 191.245Z" fill="#26784F"/>
<path d="M33.2589 191.245L36.6315 200.575L28.3674 204.318L24.9948 194.988L33.2589 191.245Z" fill="#1DA165"/>
<path d="M33.2565 191.245L58.9758 190.53L62.3485 199.871L36.6291 200.575L33.2565 191.245Z" fill="#24C87E"/>
<path d="M36.6319 200.575L62.3512 199.871L54.0871 203.614L28.3677 204.318L36.6319 200.575Z" fill="#146F46"/>
<path d="M36.6315 200.575L62.3509 199.871L65.7347 209.212L40.0154 209.916L36.6315 200.575Z" fill="#24C87E"/>
<path d="M40.0141 209.916L65.7334 209.212L57.4693 212.955L31.7499 213.659L40.0141 209.916Z" fill="#146F46"/>
<path d="M36.6319 200.575L40.0157 209.916L31.7516 213.659L28.3677 204.318L36.6319 200.575Z" fill="#1DA165"/>
<path d="M33.2586 191.245L24.9945 194.988L19.902 197.301L24.9833 194.977L33.2586 191.234L41.5116 187.491L33.2586 191.245Z" fill="#37AE72"/>
<path d="M41.5094 187.491L67.2288 186.776L58.9758 190.53L33.2565 191.245L41.5094 187.491Z" fill="#26784F"/>
<path d="M43.3971 219.246L69.1053 218.542L60.8412 222.285L35.1218 223L43.3971 219.246Z" fill="#26784F"/>
<path d="M40.0147 209.916L65.734 209.212L69.1067 218.542L43.3985 219.246L40.0147 209.916Z" fill="#44D88E"/>
<path d="M40.0141 209.916L43.3979 219.246L35.1226 223L31.7499 213.659L40.0141 209.916Z" fill="#37AE72"/>
<path d="M44.8957 196.832L70.6038 196.117L62.3509 199.871L36.6315 200.575L44.8957 196.832Z" fill="#146F46"/>
<path d="M41.511 187.491L67.2303 186.787L70.603 196.117L44.8948 196.832L41.511 187.491Z" fill="#24C87E"/>
<path d="M41.5094 187.491L44.8933 196.832L36.6291 200.575L33.2565 191.245L41.5094 187.491Z" fill="#1DA165"/>
<path d="M44.8932 196.832L70.6013 196.117L73.9852 205.458L48.277 206.173L44.8932 196.832Z" fill="#24C87E"/>
<path d="M48.2788 206.173L73.987 205.458L65.734 209.212L40.0147 209.916L48.2788 206.173Z" fill="#146F46"/>
<path d="M44.8957 196.832L48.2795 206.173L40.0154 209.916L36.6315 200.575L44.8957 196.832Z" fill="#1DA165"/>
<path d="M49.7751 183.748L75.4833 183.044L67.2303 186.787L41.511 187.491L49.7751 183.748Z" fill="#146F46"/>
<path d="M46.3925 174.406L72.1118 173.703L75.4844 183.044L49.7763 183.747L46.3925 174.406Z" fill="#24C87E"/>
<path d="M46.391 174.406L49.7748 183.748L41.5107 187.491L38.138 178.15L46.391 174.406Z" fill="#1DA165"/>
<path d="M48.2795 206.173L73.9877 205.458L77.3715 214.799L51.6522 215.502L48.2795 206.173Z" fill="#24C87E"/>
<path d="M48.2788 206.173L51.6515 215.503L43.3985 219.246L40.0147 209.916L48.2788 206.173Z" fill="#1DA165"/>
<path d="M51.651 215.503L77.3703 214.799L69.1062 218.542L43.398 219.246L51.651 215.503Z" fill="#146F46"/>
<path d="M53.1462 193.077L78.8655 192.373L70.6014 196.117L44.8932 196.832L53.1462 193.077Z" fill="#146F46"/>
<path d="M49.7751 183.747L53.1478 193.077L44.8948 196.832L41.511 187.491L49.7751 183.747Z" fill="#1DA165"/>
<path d="M49.7758 183.748L75.4839 183.044L78.8677 192.373L53.1484 193.077L49.7758 183.748Z" fill="#24C87E"/>
<path d="M51.2833 161.334L76.9915 160.619L80.3753 169.948L54.656 170.664L51.2833 161.334Z" fill="#24C87E"/>
<path d="M54.6566 170.663L80.3759 169.948L72.1118 173.703L46.3925 174.407L54.6566 170.663Z" fill="#146F46"/>
<path d="M51.2816 161.333L54.6543 170.663L46.3902 174.406L43.0175 165.077L51.2816 161.333Z" fill="#1DA165"/>
<path d="M56.5325 202.418L82.2518 201.714L73.9877 205.458L48.2795 206.173L56.5325 202.418Z" fill="#146F46"/>
<path d="M53.1462 193.077L56.53 202.418L48.277 206.173L44.8932 196.832L53.1462 193.077Z" fill="#1DA165"/>
<path d="M53.1476 193.077L78.867 192.373L82.2508 201.714L56.5315 202.418L53.1476 193.077Z" fill="#24C87E"/>
<path d="M52.7785 138.908L78.4978 138.204L81.8705 147.534L56.1512 148.238L52.7785 138.908Z" fill="#24C87E"/>
<path d="M52.779 138.908L56.1517 148.238L47.8987 151.992L44.5261 142.651L52.779 138.908Z" fill="#1DA165"/>
<path d="M56.152 148.238L81.8714 147.534L73.6184 151.277L47.899 151.993L56.152 148.238Z" fill="#146F46"/>
<path d="M54.6566 170.663L58.0404 180.004L49.7763 183.748L46.3925 174.406L54.6566 170.663Z" fill="#1DA165"/>
<path d="M54.6542 170.663L80.3735 169.948L83.7573 179.289L58.038 180.004L54.6542 170.663Z" fill="#24C87E"/>
<path d="M58.0399 180.004L83.7592 179.289L75.4839 183.044L49.7758 183.747L58.0399 180.004Z" fill="#146F46"/>
<path d="M56.5325 202.418L59.9052 211.759L51.6522 215.502L48.2795 206.173L56.5325 202.418Z" fill="#1DA165"/>
<path d="M56.5309 202.418L82.2502 201.714L85.6229 211.044L59.9035 211.759L56.5309 202.418Z" fill="#24C87E"/>
<path d="M59.9043 211.759L85.6237 211.044L77.3707 214.799L51.6514 215.503L59.9043 211.759Z" fill="#146F46"/>
<path d="M56.1514 148.238L81.8708 147.534L85.2546 156.875L59.5353 157.579L56.1514 148.238Z" fill="#24C87E"/>
<path d="M59.5363 157.579L85.2556 156.875L76.9915 160.618L51.2833 161.334L59.5363 157.579Z" fill="#146F46"/>
<path d="M56.152 148.238L59.5358 157.579L51.2829 161.334L47.899 151.993L56.152 148.238Z" fill="#1DA165"/>
<path d="M58.0399 180.004L61.4125 189.334L53.1484 193.077L49.7758 183.747L58.0399 180.004Z" fill="#1DA165"/>
<path d="M58.0395 180.004L83.7588 179.289L87.1315 188.63L61.4122 189.334L58.0395 180.004Z" fill="#24C87E"/>
<path d="M61.4118 189.334L87.1311 188.63L78.867 192.373L53.1476 193.077L61.4118 189.334Z" fill="#146F46"/>
<path d="M57.6604 125.824L61.0442 135.165L52.7801 138.908L49.3962 129.567L57.6604 125.824Z" fill="#1DA165"/>
<path d="M57.661 125.824L83.3803 125.109L86.7642 134.45L61.0448 135.165L57.661 125.824Z" fill="#24C87E"/>
<path d="M61.0426 135.165L86.762 134.45L78.4978 138.204L52.7785 138.908L61.0426 135.165Z" fill="#146F46"/>
<path d="M62.9183 166.909L88.6265 166.205L80.3735 169.948L54.6542 170.663L62.9183 166.909Z" fill="#146F46"/>
<path d="M59.5357 157.579L85.255 156.875L88.6277 166.205L62.9195 166.909L59.5357 157.579Z" fill="#24C87E"/>
<path d="M59.5363 157.579L62.9201 166.909L54.656 170.663L51.2833 161.334L59.5363 157.579Z" fill="#1DA165"/>
<path d="M61.4118 189.334L64.7956 198.675L56.5315 202.418L53.1476 193.077L61.4118 189.334Z" fill="#1DA165"/>
<path d="M64.795 198.675L90.5144 197.971L82.2502 201.714L56.5309 202.418L64.795 198.675Z" fill="#146F46"/>
<path d="M61.4124 189.334L87.1317 188.63L90.5156 197.971L64.7962 198.675L61.4124 189.334Z" fill="#24C87E"/>
<path d="M61.0426 135.165L64.4265 144.495L56.1512 148.238L52.7785 138.908L61.0426 135.165Z" fill="#1DA165"/>
<path d="M61.0443 135.165L86.7636 134.45L90.1363 143.78L64.4281 144.495L61.0443 135.165Z" fill="#24C87E"/>
<path d="M64.4267 144.495L90.1349 143.78L81.8708 147.534L56.1514 148.238L64.4267 144.495Z" fill="#146F46"/>
<path d="M62.919 166.909L88.6272 166.205L92.011 175.546L66.2917 176.25L62.919 166.909Z" fill="#24C87E"/>
<path d="M66.2925 176.25L92.0118 175.546L83.7588 179.289L58.0395 180.004L66.2925 176.25Z" fill="#146F46"/>
<path d="M62.9183 166.909L66.291 176.25L58.038 180.004L54.6542 170.663L62.9183 166.909Z" fill="#1DA165"/>
<path d="M64.7947 198.675L90.514 197.971L93.8867 207.301L68.1785 208.005L64.7947 198.675Z" fill="#44D88E"/>
<path d="M68.1801 208.005L93.8883 207.301L85.6242 211.044L59.9048 211.759L68.1801 208.005Z" fill="#26784F"/>
<path d="M64.795 198.675L68.1788 208.005L59.9035 211.759L56.5309 202.418L64.795 198.675Z" fill="#37AE72"/>
<path d="M62.5405 112.74L88.2599 112.036L91.6325 121.366L65.9244 122.07L62.5405 112.74Z" fill="#24C87E"/>
<path d="M65.9251 122.07L91.6333 121.366L83.3803 125.109L57.661 125.824L65.9251 122.07Z" fill="#146F46"/>
<path d="M62.539 112.74L65.9229 122.07L57.6587 125.824L54.2861 116.483L62.539 112.74Z" fill="#1DA165"/>
<path d="M64.4267 144.495L67.7994 153.836L59.5353 157.579L56.1514 148.238L64.4267 144.495Z" fill="#1DA165"/>
<path d="M67.7998 153.836L93.5192 153.121L85.255 156.875L59.5357 157.579L67.7998 153.836Z" fill="#146F46"/>
<path d="M64.4265 144.495L90.1347 143.78L93.5185 153.121L67.7992 153.836L64.4265 144.495Z" fill="#24C87E"/>
<path d="M66.2919 176.25L92.0112 175.546L95.3839 184.876L69.6757 185.591L66.2919 176.25Z" fill="#24C87E"/>
<path d="M69.6765 185.591L95.3847 184.876L87.1317 188.63L61.4124 189.334L69.6765 185.591Z" fill="#146F46"/>
<path d="M66.2924 176.25L69.6763 185.591L61.4121 189.334L58.0395 180.004L66.2924 176.25Z" fill="#1DA165"/>
<path d="M64.0464 90.315L67.4302 99.656L59.1661 103.399L55.7822 94.0693L64.0464 90.315Z" fill="#37AE72"/>
<path d="M64.047 90.315L89.7663 89.6111L93.139 98.9409L67.4308 99.656L64.047 90.315Z" fill="#44D88E"/>
<path d="M67.4317 99.656L93.1399 98.9409L84.8758 102.695L59.1676 103.399L67.4317 99.656Z" fill="#26784F"/>
<path d="M65.9227 122.07L91.6309 121.366L95.0147 130.707L69.3066 131.411L65.9227 122.07Z" fill="#24C87E"/>
<path d="M69.3084 131.411L95.0166 130.707L86.7636 134.45L61.0443 135.165L69.3084 131.411Z" fill="#146F46"/>
<path d="M65.9251 122.07L69.309 131.411L61.0448 135.165L57.661 125.824L65.9251 122.07Z" fill="#1DA165"/>
<path d="M67.7998 153.836L71.1837 163.166L62.9195 166.909L59.5357 157.579L67.7998 153.836Z" fill="#1DA165"/>
<path d="M71.1831 163.166L96.8913 162.462L88.6272 166.205L62.919 166.909L71.1831 163.166Z" fill="#146F46"/>
<path d="M67.8015 153.836L93.5208 153.121L96.8935 162.462L71.1853 163.166L67.8015 153.836Z" fill="#24C87E"/>
<path d="M73.0588 194.932L98.767 194.217L90.514 197.971L64.7947 198.675L73.0588 194.932Z" fill="#26784F"/>
<path d="M69.6765 185.591L73.0604 194.932L64.7962 198.675L61.4124 189.334L69.6765 185.591Z" fill="#37AE72"/>
<path d="M69.6762 185.591L95.3844 184.876L98.7682 194.217L73.06 194.932L69.6762 185.591Z" fill="#44D88E"/>
<path d="M67.4318 99.6561L70.8156 108.997L62.5403 112.74L59.1676 103.399L67.4318 99.6561Z" fill="#37AE72"/>
<path d="M70.8158 108.997L96.524 108.282L88.2599 112.036L62.5405 112.74L70.8158 108.997Z" fill="#26784F"/>
<path d="M67.4324 99.656L93.1405 98.9409L96.5243 108.282L70.8162 108.997L67.4324 99.656Z" fill="#44D88E"/>
<path d="M71.1838 163.166L96.8919 162.462L100.276 171.803L74.5676 172.507L71.1838 163.166Z" fill="#24C87E"/>
<path d="M74.5672 172.507L100.275 171.803L92.0112 175.546L66.2919 176.25L74.5672 172.507Z" fill="#146F46"/>
<path d="M71.1831 163.166L74.567 172.507L66.2917 176.25L62.919 166.909L71.1831 163.166Z" fill="#1DA165"/>
<path d="M74.1869 118.327L99.9062 117.623L91.6309 121.366L65.9227 122.07L74.1869 118.327Z" fill="#26784F"/>
<path d="M70.8158 108.997L74.1885 118.327L65.9244 122.07L62.5405 112.74L70.8158 108.997Z" fill="#37AE72"/>
<path d="M70.8156 108.997L96.5238 108.282L99.9076 117.623L74.1883 118.327L70.8156 108.997Z" fill="#44D88E"/>
<path d="M77.9403 181.837L103.66 181.133L95.3844 184.876L69.6762 185.591L77.9403 181.837Z" fill="#26784F"/>
<path d="M74.567 172.507L100.275 171.803L103.659 181.133L77.9397 181.837L74.567 172.507Z" fill="#44D88E"/>
<path d="M74.5672 172.507L77.9398 181.837L69.6757 185.591L66.2919 176.25L74.5672 172.507Z" fill="#37AE72"/>
<path d="M75.6853 95.9017L101.405 95.1978L93.1405 98.9409L67.4324 99.656L75.6853 95.9017Z" fill="#146F46"/>
<path d="M72.3118 86.5719L98.02 85.868L101.404 95.1978L75.6845 95.9018L72.3118 86.5719Z" fill="#24C87E"/>
<path d="M72.3111 86.5719L75.6838 95.9017L67.4308 99.656L64.047 90.315L72.3111 86.5719Z" fill="#1DA165"/>
<path d="M79.0686 105.243L104.788 104.539L96.5238 108.282L70.8156 108.997L79.0686 105.243Z" fill="#26784F"/>
<path d="M75.6853 95.9017L79.0691 105.243L70.8162 108.997L67.4324 99.656L75.6853 95.9017Z" fill="#37AE72"/>
<path d="M75.6837 95.9017L101.403 95.1978L104.787 104.539L79.0676 105.243L75.6837 95.9017Z" fill="#44D88E"/>
<path d="M69.3072 131.411L72.6798 140.752L64.4269 144.495L61.043 135.165L69.3072 131.411Z" fill="#1DA165"/>
<path d="M69.3078 131.411L95.016 130.707L98.3998 140.037L72.6805 140.752L69.3078 131.411Z" fill="#24C87E"/>
<path d="M72.6792 140.752L98.3986 140.037L90.1344 143.78L64.4263 144.495L72.6792 140.752Z" fill="#146F46"/>
<path d="M72.6792 140.752L76.0631 150.082L67.7989 153.836L64.4263 144.495L72.6792 140.752Z" fill="#1DA165"/>
<path d="M72.6797 140.752L98.3991 140.037L101.772 149.378L76.0636 150.082L72.6797 140.752Z" fill="#24C87E"/>
<path d="M76.0654 150.082L101.774 149.378L93.5206 153.121L67.8013 153.836L76.0654 150.082Z" fill="#146F46"/>
<path d="M74.1867 118.327L77.5706 127.668L69.3064 131.411L65.9226 122.07L74.1867 118.327Z" fill="#1DA165"/>
<path d="M74.1873 118.327L99.9067 117.623L103.279 126.964L77.5711 127.668L74.1873 118.327Z" fill="#24C87E"/>
<path d="M77.5689 127.668L103.277 126.964L95.013 130.707L69.3048 131.411L77.5689 127.668Z" fill="#146F46"/>
<path d="M80.5747 82.8289L83.9473 92.1587L75.6832 95.9018L72.3105 86.572L80.5747 82.8289Z" fill="#1DA165"/>
<path d="M80.5753 82.8288L106.295 82.1137L109.667 91.4547L83.948 92.1587L80.5753 82.8288Z" fill="#24C87E"/>
<path d="M83.9476 92.1586L109.667 91.4547L101.403 95.1978L75.6835 95.9018L83.9476 92.1586Z" fill="#146F46"/>
<path d="M83.9476 92.1586L87.3315 101.5L79.0673 105.243L75.6835 95.9017L83.9476 92.1586Z" fill="#1DA165"/>
<path d="M83.9483 92.1586L109.668 91.4547L113.051 100.796L87.3321 101.5L83.9483 92.1586Z" fill="#24C87E"/>
<path d="M87.3309 101.5L113.05 100.796L104.786 104.539L79.0668 105.243L87.3309 101.5Z" fill="#146F46"/>
<path d="M79.0674 105.243L82.44 114.584L74.1871 118.327L70.8144 108.997L79.0674 105.243Z" fill="#1DA165"/>
<path d="M79.0688 105.243L104.788 104.539L108.161 113.869L82.4415 114.584L79.0688 105.243Z" fill="#24C87E"/>
<path d="M82.4403 114.584L108.16 113.869L99.9066 117.623L74.1873 118.327L82.4403 114.584Z" fill="#146F46"/>
<path d="M77.572 127.668L80.9447 136.998L72.6806 140.752L69.3079 131.411L77.572 127.668Z" fill="#37AE72"/>
<path d="M77.5727 127.668L103.281 126.964L106.665 136.294L80.9454 136.998L77.5727 127.668Z" fill="#44D88E"/>
<path d="M80.9451 136.998L106.664 136.294L98.4003 140.037L72.6809 140.752L80.9451 136.998Z" fill="#26784F"/>
<path d="M82.4403 114.584L85.8241 123.925L77.5711 127.668L74.1873 118.327L82.4403 114.584Z" fill="#37AE72"/>
<path d="M82.4407 114.584L108.16 113.869L111.544 123.21L85.8246 123.925L82.4407 114.584Z" fill="#44D88E"/>
<path d="M85.8226 123.925L111.542 123.21L103.278 126.964L77.5696 127.668L85.8226 123.925Z" fill="#26784F"/>
<path d="M87.333 101.5L90.7168 110.83L82.4415 114.584L79.0688 105.243L87.333 101.5Z" fill="#1DA165"/>
<path d="M87.3336 101.5L113.053 100.796L116.426 110.126L90.7175 110.83L87.3336 101.5Z" fill="#24C87E"/>
<path d="M90.7161 110.829L116.424 110.126L108.16 113.869L82.4408 114.584L90.7161 110.829Z" fill="#146F46"/>
<path d="M76.0655 150.082L79.4381 159.423L71.1852 163.166L67.8013 153.836L76.0655 150.082Z" fill="#1DA165"/>
<path d="M76.0661 150.082L101.774 149.378L105.158 158.708L79.4388 159.423L76.0661 150.082Z" fill="#24C87E"/>
<path d="M79.4365 159.423L105.156 158.708L96.8917 162.462L71.1835 163.166L79.4365 159.423Z" fill="#146F46"/>
<path d="M82.8219 168.764L108.541 168.049L100.277 171.803L74.5689 172.507L82.8219 168.764Z" fill="#26784F"/>
<path d="M79.438 159.423L105.157 158.708L108.541 168.049L82.8219 168.764L79.438 159.423Z" fill="#44D88E"/>
<path d="M79.4365 159.423L82.8203 168.764L74.5674 172.507L71.1835 163.166L79.4365 159.423Z" fill="#37AE72"/>
<path d="M80.9449 136.998L84.3287 146.339L76.0646 150.082L72.6808 140.752L80.9449 136.998Z" fill="#1DA165"/>
<path d="M80.9445 136.998L106.664 136.294L110.048 145.635L84.3283 146.339L80.9445 136.998Z" fill="#24C87E"/>
<path d="M84.3302 146.339L110.05 145.635L101.774 149.378L76.0661 150.082L84.3302 146.339Z" fill="#146F46"/>
<path d="M87.7022 155.669L113.421 154.965L105.157 158.708L79.438 159.423L87.7022 155.669Z" fill="#26784F"/>
<path d="M84.3299 146.339L110.049 145.635L113.422 154.965L87.7026 155.668L84.3299 146.339Z" fill="#44D88E"/>
<path d="M84.3302 146.339L87.7029 155.669L79.4388 159.423L76.0661 150.082L84.3302 146.339Z" fill="#37AE72"/>
<path d="M85.8256 123.925L89.2095 133.255L80.9454 136.998L77.5727 127.668L85.8256 123.925Z" fill="#37AE72"/>
<path d="M85.8261 123.925L111.545 123.21L114.918 132.54L89.2099 133.255L85.8261 123.925Z" fill="#44D88E"/>
<path d="M89.2087 133.255L114.917 132.54L106.664 136.294L80.9446 136.998L89.2087 133.255Z" fill="#26784F"/>
<path d="M90.7162 110.829L94.0889 120.17L85.8247 123.925L82.4409 114.584L90.7162 110.829Z" fill="#1DA165"/>
<path d="M90.716 110.829L116.424 110.126L119.808 119.467L94.0887 120.17L90.716 110.829Z" fill="#24C87E"/>
<path d="M94.0882 120.17L119.808 119.466L111.543 123.21L85.8241 123.925L94.0882 120.17Z" fill="#146F46"/>
<path d="M89.2087 133.255L92.5813 142.596L84.3284 146.339L80.9445 136.998L89.2087 133.255Z" fill="#37AE72"/>
<path d="M89.2093 133.255L114.917 132.54L118.301 141.881L92.582 142.596L89.2093 133.255Z" fill="#44D88E"/>
<path d="M92.5797 142.596L118.299 141.881L110.046 145.635L84.3268 146.339L92.5797 142.596Z" fill="#26784F"/>
<path d="M92.5797 142.596L95.9636 151.926L87.6994 155.669L84.3268 146.339L92.5797 142.596Z" fill="#37AE72"/>
<path d="M92.5812 142.596L118.301 141.881L121.673 151.222L95.9651 151.926L92.5812 142.596Z" fill="#44D88E"/>
<path d="M95.9659 151.925L121.674 151.222L113.421 154.965L87.7017 155.669L95.9659 151.925Z" fill="#26784F"/>
<path d="M77.9411 181.837L81.325 191.178L73.0608 194.932L69.677 185.591L77.9411 181.837Z" fill="#1DA165"/>
<path d="M77.9418 181.837L103.661 181.133L107.034 190.474L81.3256 191.178L77.9418 181.837Z" fill="#24C87E"/>
<path d="M81.3233 191.178L107.032 190.474L98.7674 194.217L73.0592 194.932L81.3233 191.178Z" fill="#146F46"/>
<path d="M82.8198 168.764L86.1925 178.094L77.9395 181.837L74.5668 172.507L82.8198 168.764Z" fill="#1DA165"/>
<path d="M82.8203 168.764L108.54 168.049L111.912 177.39L86.1929 178.094L82.8203 168.764Z" fill="#24C87E"/>
<path d="M86.1917 178.094L111.911 177.39L103.658 181.133L77.9387 181.837L86.1917 178.094Z" fill="#146F46"/>
<path d="M87.7022 155.669L91.086 165.01L82.8219 168.764L79.438 159.423L87.7022 155.669Z" fill="#1DA165"/>
<path d="M87.7018 155.669L113.421 154.965L116.805 164.306L91.0856 165.01L87.7018 155.669Z" fill="#24C87E"/>
<path d="M91.0844 165.01L116.804 164.306L108.54 168.049L82.8203 168.764L91.0844 165.01Z" fill="#146F46"/>
</g>
<defs>
<clipPath id="clip0">
<rect width="121.673" height="223" fill="white"/>
</clipPath>
</defs>
</svg>
