<svg width="93" height="97" fill="none" xmlns="http://www.w3.org/2000/svg"><g filter="url(#filter0_f)"><path d="M10.7 74.4l3.2 2.3 2.3-3.2-3.2-2.3-2.3 3.2z" fill="#29D381"/><path d="M13 71.2l3.2 2.3 2.2-3.3-3.2-2.2-2.2 3.2z" fill="#28DD8B"/><path d="M12 65.7l3.2 2.3 2.3-3.2-3.2-2.3-2.3 3.2z" fill="#4BEF9D"/><path d="M15.2 68l3.2 2.2 2.3-3.2-3.2-2.2-2.3 3.2z" fill="#29D381"/><path d="M14.3 62.5l3.2 2.3 2.3-3.3-3.3-2.2-2.2 3.2z" fill="#28DD8B"/><path d="M16.5 59.3l3.3 2.2 2.2-3.2-3.2-2.2-2.3 3.2z" fill="#28DD8B"/><path d="M18.8 56l3.2 2.3 2.3-3.2-3.2-2.3-2.3 3.3zM24.3 55.1l3.2 2.3 2.3-3.2-3.2-2.3-2.3 3.2z" fill="#28DD8B"/><path d="M21 52.8l3.3 2.3 2.3-3.2-3.3-2.3-2.2 3.2z" fill="#4BEF9D"/><path d="M26.6 51.9l3.2 2.3 2.2-3.3-3.2-2.2-2.2 3.2zM51.1 30.7l3.2 2.2 2.3-3.2-3.2-2.2-2.3 3.2zM29.8 54.2l3.2 2.2 2.3-3.2-3.3-2.3-2.2 3.3z" fill="#28DD8B"/><path d="M27.5 57.4l3.2 2.2 2.3-3.2-3.2-2.2-2.3 3.2z" fill="#29D381"/><path d="M23.3 49.6l3.3 2.3 2.2-3.2-3.2-2.3-2.3 3.2z" fill="#28DD8B"/><path d="M20.1 47.4l3.2 2.2 2.3-3.2-3.2-2.3-2.3 3.3z" fill="#4BEF9D"/><path d="M17.9 50.6l3.2 2.2 2.2-3.2-3.2-2.2-2.2 3.2z" fill="#28DD8B"/><path d="M15.6 53.8l3.2 2.3 2.3-3.3-3.2-2.2-2.3 3.2z" fill="#28DD8B"/><path d="M22 58.3l3.2 2.3 2.3-3.2-3.2-2.3-2.3 3.2z" fill="#29D381"/><path d="M28.8 48.7l3.2 2.2 2.3-3.2-3.2-2.3-2.3 3.3zM32 51l3.3 2.2 2.2-3.2-3.2-2.3L32 51z" fill="#28DD8B"/><path d="M25.6 46.4l3.2 2.3 2.3-3.2-3.2-2.3-2.3 3.2z" fill="#4BEF9D"/><path d="M31 45.5l3.3 2.2 2.3-3.2-3.2-2.3-2.3 3.3z" fill="#28DD8B"/><path d="M34.3 47.7l3.2 2.3 2.3-3.2-3.2-2.3-2.3 3.2z" fill="#28DD8B"/><path d="M37.5 50l3.2 2.3L43 49l-3.2-2.2-2.3 3.2z" fill="#28DD8B"/><path d="M39.8 46.8L43 49l2.3-3.2-3.2-2.3-2.3 3.3z" fill="#28DD8B"/><path d="M42 43.5l3.3 2.3 2.2-3.2-3.2-2.3-2.2 3.2z" fill="#28DD8B"/><path d="M44.3 40.3l3.2 2.3 2.3-3.2-3.2-2.3-2.3 3.2z" fill="#28DD8B"/><path d="M46.6 37.1l3.2 2.3 2.3-3.2-3.2-2.3-2.3 3.2z" fill="#28DD8B"/><path d="M48.9 33.9l3.2 2.3 2.2-3.3-3.2-2.2-2.2 3.2zM27.9 43.2l3.2 2.3 2.3-3.3L30 40 28 43.2zM33.4 42.2l3.2 2.3 2.2-3.2-3.2-2.3-2.2 3.2z" fill="#28DD8B"/><path d="M36.6 44.5l3.2 2.3 2.3-3.3-3.3-2.2-2.2 3.2z" fill="#28DD8B"/><path d="M30.1 40l3.3 2.2 2.2-3.2-3.2-2.3-2.3 3.3z" fill="#4BEF9D"/><path d="M27 37.7L30 40l2.3-3.3-3.2-2.2-2.3 3.2zM35.6 39l3.2 2.3 2.3-3.2-3.2-2.3-2.3 3.2z" fill="#28DD8B"/><path d="M38.8 41.3l3.3 2.2 2.2-3.2-3.2-2.2-2.3 3.2z" fill="#28DD8B"/><path d="M32.4 36.7l3.2 2.3 2.3-3.2-3.2-2.3-2.3 3.2z" fill="#4BEF9D"/><path d="M29.2 34.5l3.2 2.2 2.3-3.2-3.2-2.2-2.3 3.2z" fill="#4BEF9D"/><path d="M37.9 35.8L41 38l2.3-3.3-3.2-2.2-2.3 3.2zM41.1 38l3.2 2.3 2.3-3.2-3.2-2.3-2.3 3.3z" fill="#28DD8B"/><path d="M34.7 33.5l3.2 2.3 2.3-3.2-3.3-2.3-2.2 3.2z" fill="#4BEF9D"/><path d="M37 30.3l3.2 2.3 2.2-3.2-3.2-2.3-2.3 3.2z" fill="#28DD8B"/><path d="M33.7 28l3.2 2.3 2.3-3.2-3.2-2.3-2.3 3.2z" fill="#4BEF9D"/><path d="M30.5 25.8l3.2 2.2 2.3-3.2-3.2-2.2-2.3 3.2z" fill="#28DD8B"/><path d="M28.2 29l3.3 2.3 2.2-3.3-3.2-2.2-2.3 3.2z" fill="#28DD8B"/><path d="M26 32.2l3.2 2.3 2.3-3.2-3.3-2.3-2.2 3.2z" fill="#28DD8B"/><path d="M23.7 35.4l3.2 2.3 2.3-3.2-3.2-2.3-2.3 3.2zM21.4 38.7l3.3 2.2 2.2-3.2-3.2-2.3-2.3 3.3z" fill="#28DD8B"/><path d="M19.2 41.9l3.2 2.2 2.3-3.2-3.3-2.2-2.2 3.2z" fill="#28DD8B"/><path d="M16.9 45l3.2 2.4 2.3-3.3-3.2-2.2-2.3 3.2zM31.5 31.3l3.2 2.2 2.2-3.2-3.2-2.3-2.2 3.3zM40.2 32.6l3.2 2.2 2.2-3.2-3.2-2.2-2.2 3.2z" fill="#28DD8B"/><path d="M43.4 34.8l3.2 2.3 2.3-3.2-3.3-2.3-2.2 3.2z" fill="#28DD8B"/><path d="M42.4 29.4l3.2 2.2 2.3-3.2-3.2-2.3-2.3 3.3z" fill="#28DD8B"/><path d="M39.2 27.1l3.2 2.3 2.3-3.3-3.2-2.2-2.3 3.2z" fill="#4BEF9D"/><path d="M36 24.8l3.2 2.3 2.3-3.2-3.2-2.3-2.3 3.2z" fill="#4BEF9D"/><path d="M38.3 21.6l3.2 2.3 2.2-3.2-3.2-2.3-2.2 3.2zM40.5 18.4l3.2 2.3 2.3-3.3-3.2-2.2-2.3 3.2z" fill="#4BEF9D"/><path d="M44.7 26.1l3.2 2.3 2.3-3.2-3.2-2.3-2.3 3.2z" fill="#28DD8B"/><path d="M48 28.4l3.1 2.3 2.3-3.2-3.2-2.3-2.3 3.2zM41.5 23.9l3.2 2.2L47 23l-3.3-2.2-2.2 3.2zM47 23l3.2 2.2 2.2-3.2-3.2-2.3L47 23z" fill="#28DD8B"/><path d="M50.2 25.2l3.2 2.3 2.3-3.3-3.3-2.2-2.2 3.2z" fill="#28DD8B"/><path d="M53.4 27.5l3.2 2.2 2.3-3.2-3.2-2.3-2.3 3.3zM54.3 33l3.3 2.2 2.2-3.2-3.2-2.3-2.3 3.2zM45.6 31.6L49 34l2.2-3.2-3.2-2.3-2.3 3.2z" fill="#28DD8B"/><path d="M56.6 29.7l3.2 2.3 2.3-3.2-3.2-2.3-2.3 3.2z" fill="#28DD8B"/><path d="M43.7 20.7l3.3 2.2 2.2-3.2-3.2-2.3-2.3 3.3zM49.2 19.7l3.2 2.3 2.3-3.2-3.2-2.3-2.3 3.2z" fill="#4BEF9D"/><path d="M52.4 22l3.3 2.2 2.2-3.2-3.2-2.2-2.3 3.2zM55.7 24.2l3.2 2.3 2.2-3.2L58 21l-2.2 3.2zM51.5 16.5l3.2 2.3 2.3-3.3-3.2-2.2-2.3 3.2z" fill="#28DD8B"/><path d="M54.7 18.8L58 21l2.3-3.2-3.2-2.3-2.3 3.3z" fill="#4BEF9D"/><path d="M58 21l3.1 2.3 2.3-3.2-3.2-2.3-2.3 3.2zM61.1 23.3l3.3 2.3 2.2-3.3-3.2-2.2-2.3 3.2z" fill="#28DD8B"/><path d="M60.2 17.8l3.2 2.3 2.3-3.2-3.2-2.3-2.3 3.2z" fill="#4BEF9D"/><path d="M63.4 20l3.2 2.3 2.3-3.2-3.2-2.2-2.3 3.2zM66.6 22.3l3.2 2.3 2.3-3.2L69 19l-2.3 3.2zM69.8 24.6l3.3 2.3 2.2-3.2-3.2-2.3-2.3 3.2z" fill="#28DD8B"/><path d="M73 26.9l3.3 2.2 2.2-3.2-3.2-2.2-2.2 3.2zM70.8 30l3.2 2.4 2.3-3.3L73 27 70.8 30z" fill="#28DD8B"/><path d="M67.6 27.8l3.2 2.3 2.3-3.2-3.3-2.3-2.2 3.2z" fill="#28DD8B"/><path d="M64.4 25.6l3.2 2.2 2.2-3.2-3.2-2.3-2.2 3.3zM58.9 26.5l3.2 2.3 2.3-3.2-3.3-2.3-2.2 3.2z" fill="#28DD8B"/><path d="M62 28.8l3.3 2.2 2.3-3.2-3.2-2.2-2.3 3.2z" fill="#28DD8B"/><path d="M65.7 16.9l3.2 2.2 2.3-3.2-3.3-2.3-2.2 3.3z" fill="#4BEF9D"/><path d="M68.9 19.1l3.2 2.3 2.3-3.2-3.2-2.3-2.3 3.2z" fill="#28DD8B"/><path d="M72.1 21.4l3.2 2.3 2.3-3.3-3.2-2.2-2.3 3.2z" fill="#28DD8B"/><path d="M75.3 23.7l3.2 2.2 2.3-3.2-3.2-2.3-2.3 3.3z" fill="#4BEF9D"/><path d="M76.3 29.1l3.2 2.3 2.3-3.2-3.3-2.3-2.2 3.2z" fill="#28DD8B"/><path d="M74 32.4l3.2 2.2 2.3-3.2-3.2-2.3-2.3 3.3z" fill="#28DD8B"/><path d="M77 39.2l3.2 2.3 2.2-3.2-3.2-2.3-2.3 3.2z" fill="#29D381"/><path d="M77.2 34.6l3.3 2.3 2.2-3.2-3.2-2.3-2.3 3.2z" fill="#28DD8B"/><path d="M73.7 37l3.2 2.2 2.3-3.2-3.2-2.2-2.3 3.2z" fill="#29D381"/><path d="M57 15.5l3.2 2.3 2.3-3.2-3.3-2.3-2.2 3.2zM46 17.4l3.2 2.3 2.3-3.2-3.2-2.3-2.3 3.2z" fill="#28DD8B"/><path d="M22.4 44.1l3.2 2.3 2.3-3.2-3.2-2.3-2.3 3.2z" fill="#4BEF9D"/><path d="M24.7 41l3.2 2.2L30 40 27 37.7l-2.2 3.2z" fill="#4BEF9D"/></g><defs><filter id="filter0_f" x=".7" y="2.3" width="92" height="84.4" filterUnits="userSpaceOnUse" color-interpolation-filters="sRGB"><feFlood flood-opacity="0" result="BackgroundImageFix"/><feBlend in="SourceGraphic" in2="BackgroundImageFix" result="shape"/><feGaussianBlur stdDeviation="5" result="effect1_foregroundBlur"/></filter></defs></svg>