<svg width="17" height="14" viewBox="0 0 17 14" fill="none" xmlns="http://www.w3.org/2000/svg">
<path d="M12.6459 8.2C12.2126 8.4 11.8792 8.71667 11.6459 9.15C11.3792 9.55 11.2459 10 11.2459 10.5C11.2459 11.3 11.5292 11.9833 12.0959 12.55C12.6292 13.0833 13.2792 13.35 14.0459 13.35C14.7792 13.35 15.3959 13.1167 15.8959 12.65C16.3626 12.15 16.5959 11.5333 16.5959 10.8C16.5959 10.3667 16.5292 9.96666 16.3959 9.6C16.2626 9.23333 16.0292 8.75 15.6959 8.15L11.8459 0.899998H9.4459L12.6459 8.2ZM4.1459 8.2C3.71256 8.4 3.37923 8.71667 3.1459 9.15C2.87923 9.55 2.7459 10 2.7459 10.5C2.7459 11.3 3.02923 11.9833 3.5959 12.55C4.12923 13.0833 4.77923 13.35 5.5459 13.35C6.27923 13.35 6.8959 13.1167 7.3959 12.65C7.86256 12.15 8.0959 11.5333 8.0959 10.8C8.0959 10.3667 8.02923 9.96666 7.8959 9.6C7.76256 9.23333 7.52923 8.75 7.1959 8.15L3.3459 0.899998H0.945897L4.1459 8.2Z" fill="rgba(83, 228, 162, 0.5)"/>
</svg>
