<?xml version="1.0" encoding="UTF-8" standalone="no"?>
<svg
   xmlns:dc="http://purl.org/dc/elements/1.1/"
   xmlns:cc="http://creativecommons.org/ns#"
   xmlns:rdf="http://www.w3.org/1999/02/22-rdf-syntax-ns#"
   xmlns:svg="http://www.w3.org/2000/svg"
   xmlns="http://www.w3.org/2000/svg"
   xmlns:sodipodi="http://sodipodi.sourceforge.net/DTD/sodipodi-0.dtd"
   xmlns:inkscape="http://www.inkscape.org/namespaces/inkscape"
   width="19.364"
   height="19.358"
   fill="none"
   version="1.1"
   id="svg41"
   sodipodi:docname="cookie.svg"
   inkscape:version="1.0.2 (e86c870879, 2021-01-15)">
  <metadata
     id="metadata45">
    <rdf:RDF>
      <cc:Work
         rdf:about="">
        <dc:format>image/svg+xml</dc:format>
        <dc:type
           rdf:resource="http://purl.org/dc/dcmitype/StillImage" />
      </cc:Work>
    </rdf:RDF>
  </metadata>
  <sodipodi:namedview
     pagecolor="#ffffff"
     bordercolor="#666666"
     borderopacity="1"
     objecttolerance="10"
     gridtolerance="10"
     guidetolerance="10"
     inkscape:pageopacity="0"
     inkscape:pageshadow="2"
     inkscape:window-width="640"
     inkscape:window-height="480"
     id="namedview43"
     showgrid="false"
     inkscape:zoom="41.65"
     inkscape:cx="10"
     inkscape:cy="10"
     inkscape:current-layer="svg41" />
  <g
     clip-path="url(#clip0)"
     id="g34">
    <path
       d="m 12.534,18.223 c 0,0.307 -0.015,0.614 0,0.92 0.007,0.179 -0.057,0.215 -0.222,0.215 a 649.605,649.605 0 0 0 -5.26,0 c -0.164,0 -0.229,-0.036 -0.221,-0.215 0.014,-0.306 0,-0.613 0,-0.92 l 0.007,-0.007 c 1.898,0 3.79,0 5.696,0.007 z M 18.23,6.83 c 0.306,0 0.613,0.015 0.92,0 0.179,-0.007 0.214,0.058 0.214,0.222 a 649.605,649.605 0 0 0 0,5.26 c 0,0.165 -0.035,0.229 -0.214,0.222 -0.307,-0.015 -0.614,0 -0.92,0 l -0.008,-0.008 c 0,-1.898 0,-3.79 0.007,-5.695 z M 1.135,12.534 c -0.307,0 -0.614,-0.015 -0.921,0 C 0.035,12.541 0,12.477 0,12.312 A 646.17,646.17 0 0 0 0,7.052 C 0,6.888 0.035,6.823 0.214,6.831 c 0.307,0.014 0.614,0 0.92,0 l 0.008,0.007 c 0,1.898 0,3.79 -0.007,5.696 z M 6.83,1.135 c 0,-0.307 0.015,-0.614 0,-0.92 C 6.824,0.034 6.889,0 7.053,0 c 1.756,0.007 3.505,0.007 5.26,0 0.165,0 0.229,0.036 0.222,0.214 -0.015,0.307 0,0.614 0,0.92 l -0.008,0.008 c -0.378,0 -0.763,0.007 -1.142,0.007 H 7.98 c -0.379,0 -0.764,0 -1.15,-0.014 z M 4.554,2.277 c 0,-0.293 0.014,-0.593 0,-0.885 -0.014,-0.207 0.057,-0.257 0.257,-0.25 0.67,0.007 1.349,0 2.02,0 l 0.007,0.007 c 0,0.378 -0.007,0.75 -0.007,1.128 L 5.703,2.298 C 5.325,2.284 4.939,2.284 4.553,2.277 Z"
       fill="#1da165"
       id="path2" />
    <path
       d="m 14.81,17.088 c 0,0.292 -0.014,0.592 0,0.885 0.015,0.207 -0.057,0.257 -0.257,0.25 -0.67,-0.008 -1.349,0 -2.02,0 l -0.007,-0.008 c 0,-0.278 0.015,-0.563 0,-0.842 -0.014,-0.235 0.086,-0.3 0.307,-0.292 0.657,0.007 1.314,0 1.977,0.007 -0.007,-0.007 0,0 0,0 z m -7.98,1.135 c -0.67,0 -1.349,-0.008 -2.02,0 -0.2,0 -0.264,-0.05 -0.257,-0.25 0.015,-0.293 0,-0.593 0,-0.885 l 0.008,-0.007 c 0.656,0 1.313,0.007 1.97,0 0.22,-0.008 0.32,0.057 0.306,0.292 -0.014,0.279 0,0.564 -0.007,0.85 0.007,-0.008 0,0 0,0 z m 11.4,-5.689 c 0,0.671 -0.008,1.35 0,2.02 0,0.2 -0.05,0.264 -0.25,0.257 -0.293,-0.014 -0.593,0 -0.885,0 l -0.007,-0.007 c 0,-0.657 0.007,-1.313 0,-1.97 -0.008,-0.221 0.057,-0.321 0.292,-0.307 0.279,0.014 0.557,0 0.85,0.007 -0.008,-0.007 0,0 0,0 z M 2.276,14.811 c -0.292,0 -0.592,-0.014 -0.885,0 -0.207,0.014 -0.257,-0.057 -0.25,-0.257 0.008,-0.67 0,-1.349 0,-2.02 l 0.008,-0.007 c 0.278,0 0.564,0.014 0.842,0 0.235,-0.014 0.3,0.086 0.293,0.307 -0.008,0.657 0,1.313 -0.008,1.977 0.008,-0.007 0,0 0,0 z M 1.135,6.831 c 0,-0.67 0.007,-1.349 0,-2.02 0,-0.2 0.05,-0.264 0.25,-0.257 0.292,0.015 0.592,0 0.885,0 l 0.007,0.007 c 0,0.379 0.007,0.764 0.007,1.142 L 2.262,6.831 c -0.364,0 -0.742,0.007 -1.127,0 z M 12.534,1.135 c 0.67,0 1.349,0.007 2.02,0 0.2,0 0.264,0.05 0.257,0.25 -0.014,0.293 0,0.593 0,0.885 l -0.007,0.007 c -0.379,0 -0.764,0.007 -1.142,0.007 L 12.534,2.263 c 0,-0.371 -0.007,-0.742 0,-1.128 z m 4.554,3.419 c 0.292,0 0.592,0.015 0.885,0 0.207,-0.014 0.257,0.057 0.25,0.257 -0.008,0.671 0,1.35 0,2.02 l -0.008,0.007 c -0.378,0 -0.749,-0.007 -1.127,-0.007 L 17.066,5.703 c 0.015,-0.378 0.015,-0.763 0.022,-1.149 -0.007,0.007 0,0 0,0 z m -14.811,0 C 2.305,4.183 2.12,3.684 2.355,3.469 2.562,3.284 3.055,3.419 3.419,3.412 l 0.007,0.007 v 1.135 a 30.83,30.83 0 0 1 -1.15,0 c 0.008,0.007 0,0 0,0 z"
       fill="#1da165"
       id="path4" />
    <path
       d="M 3.419,3.412 C 3.447,3.041 3.262,2.542 3.497,2.327 3.704,2.142 4.197,2.277 4.561,2.27 l 0.007,0.007 v 1.135 a 30.83,30.83 0 0 1 -1.15,0 z m 12.526,0 c 0.372,0.028 0.871,-0.157 1.085,0.078 0.186,0.207 0.05,0.693 0.057,1.064 L 17.08,4.561 h -1.135 v -1.15 c 0,0.008 0,0 0,0 z"
       fill="#1da165"
       id="path6" />
    <path
       d="m 14.81,2.277 c 0.372,0.029 0.871,-0.157 1.085,0.079 0.186,0.207 0.05,0.692 0.057,1.063 L 15.945,3.426 H 14.81 a 31.003,31.003 0 0 1 0,-1.149 z M 3.419,15.946 C 3.048,15.918 2.548,16.103 2.334,15.867 2.148,15.66 2.284,15.175 2.277,14.804 l 0.007,-0.007 c 0.307,0 0.606,0.007 0.913,0 0.165,0 0.229,0.064 0.229,0.228 -0.014,0.307 -0.007,0.614 -0.007,0.921 z m 13.668,-1.135 c -0.028,0.371 0.157,0.87 -0.078,1.085 -0.207,0.186 -0.7,0.05 -1.064,0.057 l -0.007,-0.007 c 0,-0.307 0.007,-0.607 0,-0.914 0,-0.164 0.065,-0.228 0.229,-0.228 0.307,0.007 0.613,0 0.92,0.007 z"
       fill="#1da165"
       id="path8" />
    <path
       d="M 4.553,17.088 C 4.183,17.059 3.683,17.245 3.468,17.009 3.283,16.802 3.418,16.317 3.411,15.946 l 0.007,-0.007 c 0.307,0 0.607,0.007 0.914,0 0.164,0 0.228,0.064 0.228,0.228 -0.007,0.307 0,0.607 -0.007,0.92 z m 11.393,-1.142 c -0.029,0.371 0.157,0.87 -0.079,1.085 -0.207,0.185 -0.7,0.05 -1.064,0.057 l -0.007,-0.007 c 0,-0.307 0.008,-0.607 0,-0.914 0,-0.164 0.065,-0.228 0.229,-0.228 0.307,0.007 0.614,0 0.92,0.007 0,-0.007 0,0 0,0 z"
       fill="#1da165"
       id="path10" />
    <path
       d="m 15.945,15.939 c -0.306,0 -0.606,0.007 -0.913,0 -0.164,0 -0.229,0.064 -0.229,0.228 0.007,0.307 0,0.607 0,0.914 -0.656,0 -1.313,0.007 -1.97,0 -0.22,-0.007 -0.32,0.057 -0.307,0.293 0.015,0.278 0,0.564 0,0.842 H 6.838 c 0,-0.279 -0.015,-0.564 0,-0.842 0.014,-0.236 -0.086,-0.3 -0.307,-0.293 -0.657,0.014 -1.314,0 -1.97,0 0,-0.307 -0.007,-0.607 0,-0.914 0,-0.164 -0.065,-0.228 -0.229,-0.228 -0.307,0.007 -0.606,0 -0.913,0 0,-0.307 -0.007,-0.607 0,-0.914 0,-0.164 -0.065,-0.228 -0.229,-0.228 -0.307,0.007 -0.606,0 -0.913,0 0,-0.657 -0.008,-1.314 0,-1.97 0.007,-0.221 -0.057,-0.321 -0.293,-0.307 -0.278,0.014 -0.564,0 -0.842,0 V 6.831 c 0.378,0 0.75,-0.007 1.127,-0.007 0,1.22 0,2.434 0.015,3.655 0,0.292 -0.129,0.656 0.064,0.849 0.164,0.171 0.521,0.036 0.785,0.05 h 0.036 c 0.185,-0.021 0.25,0.057 0.25,0.243 0,0.278 -0.122,0.642 0.05,0.82 0.185,0.2 0.556,0.057 0.849,0.065 0.193,0.007 0.243,0.078 0.236,0.257 -0.008,0.292 0,0.592 0,0.885 0,0.307 0.007,0.606 0,0.913 -0.008,0.165 0.064,0.229 0.228,0.229 0.307,-0.007 0.607,0 0.914,0 0,0.307 -0.008,0.614 0,0.92 0.014,0.379 0.32,0.229 0.478,0.207 0.221,-0.028 0.585,0.236 0.65,-0.207 0.042,-0.3 0.006,-0.613 0.006,-0.92 h 4.833 c 0.842,0 0.85,0 0.85,-0.835 0,-0.264 0.1,-0.314 0.335,-0.307 0.556,0.014 1.113,-0.007 1.67,0.007 0.214,0.007 0.3,-0.064 0.285,-0.286 -0.014,-0.285 -0.007,-0.57 -0.007,-0.849 0.293,0 0.586,-0.014 0.878,-0.007 0.193,0.007 0.279,-0.057 0.264,-0.264 -0.014,-0.293 0,-0.586 0,-0.878 0.25,0 0.5,-0.022 0.743,0.007 0.342,0.043 0.406,-0.107 0.4,-0.414 -0.015,-1.385 0,-2.762 0.006,-4.147 0.379,0 0.75,0.007 1.128,0.007 v 5.689 c -0.278,0 -0.564,0.014 -0.842,0 -0.236,-0.014 -0.3,0.085 -0.293,0.307 0.015,0.656 0,1.313 0,1.97 -0.307,0 -0.606,0.007 -0.913,0 -0.165,0 -0.229,0.064 -0.229,0.228 0.014,0.314 0.007,0.621 0.007,0.92 z"
       fill="#4bef9d"
       id="path12" />
    <path
       d="m 14.796,12.534 c 0,0.286 -0.007,0.571 0.007,0.85 0.014,0.22 -0.064,0.285 -0.285,0.285 -0.557,-0.014 -1.114,0.007 -1.67,-0.007 -0.236,-0.007 -0.336,0.043 -0.336,0.307 0,0.835 -0.014,0.835 -0.85,0.835 H 6.83 C 6.809,14.44 6.98,13.969 6.766,13.748 6.538,13.505 6.052,13.683 5.681,13.676 5.303,13.669 4.925,13.669 4.546,13.662 c 0,-0.293 -0.007,-0.593 0,-0.885 C 4.553,12.598 4.496,12.527 4.311,12.52 4.018,12.513 3.647,12.656 3.461,12.456 3.29,12.27 3.411,11.913 3.411,11.635 c 0,-0.186 -0.064,-0.264 -0.25,-0.243 H 3.126 C 2.855,11.371 2.505,11.506 2.341,11.342 2.148,11.142 2.276,10.778 2.276,10.492 2.262,9.272 2.269,8.059 2.262,6.838 L 2.284,5.71 C 2.64,5.675 3.112,5.853 3.333,5.64 3.576,5.404 3.383,4.932 3.411,4.561 c 0.307,0 0.607,-0.007 0.914,0 0.164,0.007 0.228,-0.057 0.228,-0.228 -0.007,-0.307 0,-0.607 0,-0.914 0.293,0 0.586,-0.007 0.878,0 C 5.624,3.426 5.703,3.362 5.695,3.162 5.681,2.87 5.695,2.577 5.703,2.284 L 6.83,2.263 c 0.279,0 0.564,-0.007 0.843,0.014 0.22,0.015 0.32,-0.05 0.307,-0.292 -0.015,-0.279 0,-0.564 0,-0.843 h 3.404 c 0.036,0.357 -0.15,0.835 0.072,1.05 0.235,0.235 0.706,0.057 1.077,0.071 l 1.128,0.021 c 0,0.379 0.007,0.757 0.007,1.135 -0.663,0 -1.327,0.007 -1.991,-0.007 -0.2,0 -0.3,0.029 -0.293,0.264 0.014,0.593 0.014,1.185 0,1.778 0,0.185 0.057,0.242 0.243,0.242 a 49.16,49.16 0 0 1 1.777,0 C 13.64,5.703 13.675,5.603 13.668,5.404 13.654,4.74 13.661,4.076 13.661,3.412 h 1.142 c 0,0.307 0.007,0.607 0,0.914 -0.007,0.164 0.057,0.228 0.229,0.228 0.306,-0.007 0.606,0 0.913,0 v 1.142 c -0.307,0 -0.614,0 -0.92,-0.007 -0.143,0 -0.207,0.029 -0.222,0.193 -0.086,0.935 -0.05,0.97 0.885,0.956 0.193,-0.007 0.279,-0.043 0.264,-0.257 -0.014,-0.292 -0.007,-0.592 -0.007,-0.885 0.378,0 0.757,0.007 1.135,0.007 l 0.022,1.128 c 0,1.385 -0.015,2.762 -0.008,4.147 0,0.307 -0.057,0.457 -0.4,0.414 -0.242,-0.028 -0.492,-0.007 -0.742,-0.007 0,-0.293 -0.014,-0.592 0,-0.885 0.022,-0.357 -0.25,-0.286 -0.406,-0.243 -0.243,0.072 -0.657,-0.278 -0.728,0.236 -0.043,0.285 -0.015,0.585 -0.015,0.885 -0.307,0 -0.614,0.007 -0.92,0.007 -0.379,0.007 -0.222,0.314 -0.193,0.443 0.057,0.228 -0.264,0.606 0.192,0.685 0.293,0.057 0.607,0.021 0.914,0.021 z m -3.419,0 c 0.057,-1.185 0.057,-1.185 -1.135,-1.135 -0.292,0 -0.592,0 -0.885,-0.014 -0.171,-0.007 -0.257,0.036 -0.25,0.236 0.015,0.6 0.007,1.206 0,1.805 0,0.186 0.057,0.243 0.243,0.243 0.6,-0.007 1.206,-0.007 1.806,0 0.2,0 0.242,-0.078 0.235,-0.25 -0.014,-0.292 -0.007,-0.592 -0.014,-0.885 z M 7.972,6.831 c 0,-0.278 -0.014,-0.564 0,-0.85 C 7.98,5.775 7.937,5.689 7.702,5.689 7.123,5.703 6.538,5.703 5.96,5.689 5.774,5.689 5.681,5.725 5.688,5.939 5.695,6.217 5.81,6.589 5.645,6.767 5.46,6.96 5.082,6.824 4.796,6.831 c -0.193,0 -0.243,0.071 -0.235,0.25 0.007,0.4 0,0.806 0,1.206 0,0.814 0,0.814 0.828,0.828 H 5.496 C 5.653,9.101 5.71,9.165 5.703,9.322 5.695,9.558 5.71,9.793 5.695,10.036 c -0.007,0.171 0.05,0.228 0.222,0.228 a 76.09,76.09 0 0 1 1.813,0 c 0.178,0 0.257,-0.05 0.25,-0.242 C 7.972,9.736 7.88,9.372 8.022,9.194 8.187,8.987 8.579,9.129 8.865,9.122 9.043,9.115 9.122,9.08 9.115,8.887 a 38.368,38.368 0 0 1 0,-1.813 c 0.007,-0.2 -0.08,-0.236 -0.25,-0.236 -0.3,0 -0.593,-0.007 -0.893,-0.007 z m 5.696,0.593 c -0.007,-0.657 0.086,-0.579 -0.464,-0.586 -0.67,-0.007 -0.67,0 -0.67,0.478 0,0.657 0,0.657 0.499,0.657 0.635,0 0.635,0 0.635,-0.55 z M 10.25,3.976 c 0,-0.557 0,-0.557 -0.45,-0.557 -0.692,0 -0.692,0 -0.692,0.457 0,0.678 0,0.678 0.464,0.678 0.678,0.007 0.678,0.007 0.678,-0.578 z"
       fill="#4bef9d"
       fill-opacity="0.53"
       id="path14" />
    <path
       d="M 12.534,2.27 C 12.162,2.263 11.691,2.434 11.456,2.199 11.242,1.977 11.42,1.506 11.384,1.149 c 0.379,0 0.764,-0.007 1.143,-0.007 0,0.379 0.007,0.75 0.007,1.128 z M 7.98,1.15 c 0,0.278 -0.022,0.563 0,0.842 C 7.994,2.234 7.894,2.299 7.673,2.284 7.394,2.27 7.109,2.277 6.83,2.27 6.83,1.892 6.838,1.52 6.838,1.142 7.216,1.149 7.601,1.149 7.98,1.149 Z M 5.703,2.291 c 0,0.293 -0.015,0.586 -0.007,0.878 0.007,0.2 -0.072,0.265 -0.264,0.257 -0.293,-0.014 -0.586,0 -0.878,0 V 2.291 c 0.385,-0.007 0.77,-0.007 1.149,0 z M 3.419,4.562 C 3.383,4.932 3.576,5.404 3.34,5.639 3.119,5.853 2.648,5.675 2.29,5.711 2.29,5.332 2.284,4.947 2.284,4.569 2.662,4.562 3.04,4.562 3.419,4.562 Z M 13.668,3.42 c 0,-0.379 -0.007,-0.757 -0.007,-1.136 0.379,0 0.764,-0.007 1.142,-0.007 v 1.135 c -0.378,0.007 -0.756,0.007 -1.135,0.007 z m 2.277,2.276 V 4.554 h 1.135 c 0,0.378 -0.007,0.763 -0.007,1.142 -0.378,0.007 -0.756,0 -1.128,0 z"
       fill="#4bef9d"
       id="path16" />
    <path
       d="m 4.561,3.42 c 0,0.307 -0.007,0.606 0,0.913 0.007,0.164 -0.057,0.229 -0.228,0.229 -0.307,-0.007 -0.607,0 -0.914,0 V 3.427 C 3.804,3.42 4.183,3.42 4.561,3.42 Z m 11.384,1.142 c -0.306,0 -0.606,-0.007 -0.913,0 -0.164,0.007 -0.229,-0.057 -0.229,-0.229 0.007,-0.307 0,-0.606 0,-0.913 h 1.135 c 0.007,0.378 0.007,0.763 0.007,1.142 z"
       fill="#4bef9d"
       id="path18" />
    <path
       d="m 14.796,12.534 c -0.307,0 -0.62,0.036 -0.92,-0.014 -0.457,-0.078 -0.136,-0.457 -0.193,-0.685 -0.029,-0.129 -0.179,-0.436 0.193,-0.443 0.306,0 0.613,-0.007 0.92,-0.007 0.386,0 0.764,0.007 1.15,0.007 0,0.293 -0.008,0.586 0,0.878 0.007,0.2 -0.072,0.272 -0.265,0.264 -0.292,-0.014 -0.585,0 -0.885,0 z M 4.56,13.662 c 0.379,0.007 0.757,0.007 1.136,0.014 v 1.128 c -0.307,0 -0.607,-0.008 -0.914,0 -0.164,0.007 -0.228,-0.065 -0.228,-0.229 0.007,-0.3 0.007,-0.606 0.007,-0.913 z m 2.278,1.142 c 0,0.307 0.035,0.62 -0.007,0.92 -0.065,0.443 -0.429,0.18 -0.65,0.208 -0.157,0.021 -0.464,0.171 -0.478,-0.207 -0.007,-0.307 0,-0.614 0,-0.921 z M 7.973,6.831 c 0.3,0 0.592,0.015 0.892,0 0.171,-0.007 0.257,0.036 0.25,0.236 a 38.368,38.368 0 0 0 0,1.813 c 0,0.193 -0.072,0.236 -0.25,0.236 C 8.572,9.123 8.187,8.98 8.023,9.186 7.88,9.358 7.973,9.729 7.98,10.015 7.987,10.208 7.915,10.258 7.73,10.258 a 76.088,76.088 0 0 0 -1.813,0 C 5.746,10.258 5.689,10.201 5.696,10.029 5.703,9.794 5.689,9.559 5.703,9.315 5.71,9.158 5.653,9.095 5.496,9.108 5.46,9.116 5.424,9.108 5.389,9.108 4.561,9.094 4.561,9.094 4.561,8.28 c 0,-0.4 0.007,-0.806 0,-1.206 C 4.554,6.896 4.611,6.831 4.796,6.824 5.089,6.817 5.46,6.96 5.646,6.76 5.817,6.582 5.696,6.218 5.689,5.932 5.681,5.718 5.774,5.682 5.959,5.682 a 47.25,47.25 0 0 0 1.742,0 c 0.236,-0.007 0.279,0.086 0.272,0.293 -0.008,0.293 0.007,0.57 0,0.856 -0.1,0.008 -0.207,0.008 -0.314,0.008 -0.871,0 -0.871,0 -0.828,0.878 V 7.752 C 6.809,8.059 7.051,8.009 7.195,7.973 7.452,7.909 7.851,8.216 7.951,7.759 8.03,7.459 7.973,7.139 7.973,6.831 Z"
       fill="#1da165"
       id="path20" />
    <path
       d="m 13.661,3.42 c 0,0.663 -0.007,1.327 0.008,1.99 0,0.2 -0.03,0.3 -0.265,0.293 a 36.899,36.899 0 0 0 -1.777,0 c -0.186,0 -0.243,-0.057 -0.243,-0.242 0.008,-0.593 0.015,-1.185 0,-1.778 -0.007,-0.235 0.093,-0.27 0.293,-0.264 0.664,0.007 1.328,0 1.984,0 0.008,0 0,0 0,0 z"
       fill="#fafafa"
       id="path22" />
    <path
       d="m 11.377,12.534 c 0,0.293 0,0.593 0.014,0.885 0.008,0.172 -0.035,0.258 -0.235,0.25 a 51.04,51.04 0 0 0 -1.806,0 c -0.185,0 -0.243,-0.057 -0.243,-0.242 0.008,-0.6 0.008,-1.207 0,-1.806 0,-0.2 0.079,-0.243 0.25,-0.236 0.293,0.014 0.593,0.007 0.885,0.014 0,0.293 0.015,0.593 0,0.886 -0.007,0.185 0.065,0.25 0.25,0.25 0.3,-0.015 0.593,0 0.885,0 z"
       fill="#1da165"
       id="path24" />
    <path
       d="m 15.946,5.696 c 0,0.293 -0.015,0.593 0.007,0.885 0.014,0.214 -0.072,0.25 -0.264,0.257 -0.935,0.022 -0.964,-0.014 -0.886,-0.956 0.015,-0.164 0.08,-0.193 0.222,-0.193 0.3,0.014 0.614,0.007 0.92,0.007 z"
       fill="#fafafa"
       id="path26" />
    <path
       d="m 13.669,7.423 c 0,0.55 0,0.55 -0.636,0.55 -0.5,0 -0.5,0 -0.5,-0.657 0,-0.485 0,-0.485 0.672,-0.478 0.55,0 0.457,-0.071 0.464,0.585 z m 2.277,3.969 c -0.386,0 -0.764,-0.007 -1.15,-0.007 0,-0.293 -0.028,-0.592 0.015,-0.885 0.071,-0.514 0.485,-0.164 0.728,-0.236 0.157,-0.042 0.428,-0.114 0.407,0.243 -0.015,0.293 0,0.585 0,0.885 z m -4.569,1.142 c -0.292,0 -0.592,-0.014 -0.885,0 -0.185,0.007 -0.25,-0.064 -0.25,-0.25 0.008,-0.292 0,-0.592 0,-0.885 1.192,-0.057 1.192,-0.057 1.135,1.135 z m -4.539,2.27 H 5.696 v -1.128 c 0.371,0.007 0.85,-0.171 1.085,0.071 0.207,0.222 0.035,0.693 0.057,1.057 z"
       fill="#4bef9d"
       id="path28" />
    <path
       d="m 10.25,3.976 c 0,0.586 0,0.586 -0.671,0.579 -0.464,0 -0.464,0 -0.464,-0.679 0,-0.456 0,-0.456 0.692,-0.456 0.443,0 0.443,0 0.443,0.556 z"
       fill="#1da165"
       id="path30" />
    <path
       d="m 7.973,6.83 c 0,0.308 0.05,0.629 -0.015,0.922 -0.1,0.456 -0.5,0.15 -0.756,0.214 C 7.059,8.001 6.816,8.051 6.838,7.744 V 7.71 C 6.795,6.832 6.795,6.832 7.666,6.832 c 0.1,0.007 0.207,0 0.307,0 0.007,0 0,0 0,0 z"
       fill="#4bef9d"
       id="path32" />
  </g>
  <defs
     id="defs39">
    <clipPath
       id="clip0">
      <path
         fill="#ffffff"
         d="M 0,0 H 19.365 V 19.365 H 0 Z"
         id="path36" />
    </clipPath>
  </defs>
</svg>
