<svg width="43" height="43" viewBox="0 0 43 43" fill="none" xmlns="http://www.w3.org/2000/svg">
<path fill-rule="evenodd" clip-rule="evenodd" d="M41.6612 31.7539V37.7366C41.6658 38.8596 41.1967 39.9325 40.3691 40.6917C39.5416 41.4509 38.4323 41.8261 37.3139 41.725C31.1773 41.0582 25.2827 38.9613 20.1038 35.6028C15.2854 32.541 11.2002 28.4558 8.13845 23.6375C4.76818 18.4349 2.67079 12.5117 2.0162 6.34759C1.91544 5.23257 2.28796 4.12654 3.04276 3.29967C3.79755 2.47281 4.86513 2.00125 5.98469 2.0002H11.9673C13.9693 1.98049 15.6756 3.44793 15.9558 5.43025C16.2083 7.34483 16.6766 9.2247 17.3517 11.034C17.8996 12.4915 17.5492 14.1346 16.4543 15.2418L13.9217 17.7745C16.7606 22.7671 20.8944 26.9009 25.887 29.7398L28.4196 27.2071C29.5268 26.1123 31.1699 25.7618 32.6274 26.3097C34.4367 26.9849 36.3166 27.4531 38.2312 27.7057C40.2365 27.9886 41.7115 29.7294 41.6612 31.7539Z" stroke="#28DD8B" stroke-width="2.5" stroke-linecap="round" stroke-linejoin="round"/>
</svg>
