<svg width="17" height="14" viewBox="0 0 17 14" fill="none" xmlns="http://www.w3.org/2000/svg">
<path d="M4.8541 8.2C5.28744 8.4 5.62077 8.71667 5.8541 9.15C6.12077 9.55 6.2541 10 6.2541 10.5C6.2541 11.3 5.97077 11.9833 5.4041 12.55C4.87077 13.0833 4.22077 13.35 3.4541 13.35C2.72077 13.35 2.1041 13.1167 1.6041 12.65C1.13744 12.15 0.904102 11.5333 0.904102 10.8C0.904102 10.3667 0.970768 9.96666 1.1041 9.6C1.23744 9.23333 1.47077 8.75 1.8041 8.15L5.6541 0.899998H8.0541L4.8541 8.2ZM13.3541 8.2C13.7874 8.4 14.1208 8.71667 14.3541 9.15C14.6208 9.55 14.7541 10 14.7541 10.5C14.7541 11.3 14.4708 11.9833 13.9041 12.55C13.3708 13.0833 12.7208 13.35 11.9541 13.35C11.2208 13.35 10.6041 13.1167 10.1041 12.65C9.63744 12.15 9.4041 11.5333 9.4041 10.8C9.4041 10.3667 9.47077 9.96666 9.6041 9.6C9.73744 9.23333 9.97077 8.75 10.3041 8.15L14.1541 0.899998H16.5541L13.3541 8.2Z" fill="rgba(83, 228, 162, 0.5)"/>
</svg>
